<svg width="30" height="32" viewBox="0 0 30 32" fill="none" xmlns="http://www.w3.org/2000/svg">
<path d="M6.85043 24.1761C6.85043 24.1761 6.34543 23.6834 9.62798 24.9151C12.9105 26.1468 14.6781 23.1907 14.6781 23.1907C15.9583 21.5279 14.1756 19.8626 13.5898 19.3846C13.4812 19.3526 13.3423 19.3083 13.163 19.2492C11.648 18.7565 6.59793 19.2492 6.59793 19.2492C6.34543 20.4809 7.35544 22.9443 7.35544 22.9443C5.08291 21.4663 5.08291 19.4955 5.08291 19.4955L3.82039 19.7418C1.80035 18.5101 1.54785 17.032 1.54785 17.032L3.56788 16.7857L1.29535 16.5394V15.0613L4.32539 12.8442C2.81037 11.3661 9.12297 11.1198 9.12297 11.1198C3.06287 9.64169 11.9005 6.19285 11.9005 6.19285C11.3955 3.23671 13.4155 2.00498 13.4155 2.00498C14.1731 7.91727 17.7081 8.40996 17.7081 8.40996C15.6881 3.48305 17.2031 3.48305 17.2031 3.48305C18.2131 5.20747 21.2432 6.4392 21.2432 6.4392C27.5558 7.91727 27.5558 6.68554 27.5558 6.68554C23.7682 6.68554 23.0107 4.46843 23.0107 4.46843C25.2832 5.70016 27.5558 4.96112 27.5558 4.96112C26.7983 3.7294 20.7382 -1.6902 12.4055 0.526905C12.2313 0.573711 12.0596 0.620517 11.8904 0.672249C4.8304 2.77358 0.191903 9.17609 0 16.293C0.111102 22.3901 3.71181 27.652 8.94117 30.2608C9.99158 25.3585 6.85043 24.1761 6.85043 24.1761Z" fill="white"/>
<path d="M11.3955 27.8712C11.5824 29.6868 10.8097 30.5638 10.3905 30.9013C11.0546 31.1575 11.7389 31.3743 12.4434 31.5443C12.8095 28.8 11.3955 27.8712 11.3955 27.8712Z" fill="white"/>
<path d="M30 24.9767C29.6844 24.2795 28.4193 21.7816 26.0407 20.7272C26.0407 20.7272 27.5558 25.6541 25.0307 27.8713C25.0307 27.8713 27.8083 20.7272 21.7482 17.2784C21.7482 17.2784 23.7682 24.1761 18.7181 28.1176C18.7181 28.1176 19.7281 25.6541 17.9606 23.9297C17.9606 23.9297 17.2031 29.3493 12.9105 31.5664C12.9105 31.5664 14.7159 31.9433 17.0844 32C22.4577 31.7832 27.1669 29.0512 30 24.9767Z" fill="white"/>
<path d="M11.3955 12.5978C12.4055 11.3661 13.4155 9.88803 13.4155 9.88803C9.88048 10.1344 11.3955 12.5978 11.3955 12.5978Z" fill="white"/>
</svg>
