<svg width="32" height="32" viewBox="0 0 32 32" fill="none" xmlns="http://www.w3.org/2000/svg">
<rect width="32" height="32" rx="16" fill="#292B2C"/>
<path d="M7.16539 23.6651C7.16539 23.6651 6.71088 23.2032 9.66518 24.3579C12.6195 25.5127 14.2103 22.7413 14.2103 22.7413C15.3624 21.1824 13.758 19.6211 13.2308 19.1731C13.1331 19.1431 13.0081 19.1015 12.8467 19.0461C11.4832 18.5842 6.93814 19.0461 6.93814 19.0461C6.71088 20.2008 7.6199 22.5103 7.6199 22.5103C5.57462 21.1246 5.57462 19.277 5.57462 19.277L4.43835 19.508C2.62032 18.3532 2.39306 16.9675 2.39306 16.9675L4.21109 16.7366L2.16581 16.5056V15.12L4.89285 13.0414C3.52933 11.6557 9.21067 11.4248 9.21067 11.4248C3.75659 10.0391 11.7105 6.8058 11.7105 6.8058C11.256 4.03441 13.074 2.87967 13.074 2.87967C13.7557 8.42244 16.9373 8.88434 16.9373 8.88434C15.1193 4.26536 16.4828 4.26536 16.4828 4.26536C17.3918 5.882 20.1188 7.03675 20.1188 7.03675C25.8002 8.42244 25.8002 7.26769 25.8002 7.26769C22.3914 7.26769 21.7096 5.18916 21.7096 5.18916C23.7549 6.3439 25.8002 5.65105 25.8002 5.65105C25.1184 4.49631 19.6643 -0.584566 12.165 1.49397C12.0082 1.53785 11.8536 1.58173 11.7014 1.63023C5.34736 3.60023 1.17271 9.60259 1 16.2747C1.09999 21.9907 4.34063 26.9237 9.04705 29.3695C9.99243 24.7736 7.16539 23.6651 7.16539 23.6651Z" fill="white"/>
<path d="M11.2559 27.1293C11.4241 28.8314 10.7287 29.6536 10.3515 29.97C10.9491 30.2102 11.565 30.4134 12.199 30.5727C12.5286 28 11.2559 27.1293 11.2559 27.1293Z" fill="white"/>
<path d="M28 24.4157C27.716 23.7621 26.5774 21.4202 24.4367 20.4318C24.4367 20.4318 25.8002 25.0508 23.5277 27.1293C23.5277 27.1293 26.0275 20.4318 20.5734 17.1985C20.5734 17.1985 22.3914 23.6651 17.8463 27.3603C17.8463 27.3603 18.7554 25.0508 17.1646 23.4341C17.1646 23.4341 16.4828 28.515 12.6195 30.5935C12.6195 30.5935 14.2444 30.9469 16.376 31C21.212 30.7968 25.4502 28.2355 28 24.4157Z" fill="white"/>
<path d="M11.256 12.8105C12.165 11.6557 13.074 10.27 13.074 10.27C9.89243 10.501 11.256 12.8105 11.256 12.8105Z" fill="white"/>
</svg>
