<svg width="140" height="32" viewBox="0 0 140 32" fill="none" xmlns="http://www.w3.org/2000/svg">
<path d="M44.1992 24H41.875V9.72266H49.9414V11.6953H44.1992V16.1484H49.5703V18.1113H44.1992V24ZM52.5391 24V9.72266H54.8828V22.0078H60.9473V24H52.5391ZM72.2656 24L70.8691 20.0352H65.4102L64.0137 24H61.543L66.8555 9.66406H69.4531L74.7559 24H72.2656ZM70.2637 18.0234L68.9062 14.1172C68.8542 13.9479 68.7793 13.7103 68.6816 13.4043C68.584 13.0918 68.4863 12.776 68.3887 12.457C68.291 12.1315 68.2096 11.8581 68.1445 11.6367C68.0794 11.9036 67.998 12.2031 67.9004 12.5352C67.8092 12.8607 67.7181 13.1667 67.627 13.4531C67.5423 13.7396 67.4772 13.9609 67.4316 14.1172L66.0645 18.0234H70.2637ZM81.5918 24H79.2383V11.7148H75.0586V9.72266H85.7617V11.7148H81.5918V24ZM101.992 24L100.596 20.0352H95.1367L93.7402 24H91.2695L96.582 9.66406H99.1797L104.482 24H101.992ZM99.9902 18.0234L98.6328 14.1172C98.5807 13.9479 98.5059 13.7103 98.4082 13.4043C98.3105 13.0918 98.2129 12.776 98.1152 12.457C98.0176 12.1315 97.9362 11.8581 97.8711 11.6367C97.806 11.9036 97.7246 12.2031 97.627 12.5352C97.5358 12.8607 97.4447 13.1667 97.3535 13.4531C97.2689 13.7396 97.2038 13.9609 97.1582 14.1172L95.791 18.0234H99.9902ZM106.367 9.72266H110.615C112.458 9.72266 113.848 9.98958 114.785 10.5234C115.723 11.0573 116.191 11.9785 116.191 13.2871C116.191 13.834 116.094 14.3288 115.898 14.7715C115.71 15.2077 115.433 15.569 115.068 15.8555C114.704 16.1354 114.255 16.3242 113.721 16.4219V16.5195C114.274 16.6172 114.766 16.7897 115.195 17.0371C115.632 17.2845 115.973 17.6393 116.221 18.1016C116.475 18.5638 116.602 19.1628 116.602 19.8984C116.602 20.7708 116.393 21.513 115.977 22.125C115.566 22.737 114.977 23.2025 114.209 23.5215C113.447 23.8405 112.542 24 111.494 24H106.367V9.72266ZM108.711 15.6113H110.957C112.018 15.6113 112.754 15.4388 113.164 15.0938C113.574 14.7487 113.779 14.2441 113.779 13.5801C113.779 12.903 113.535 12.4147 113.047 12.1152C112.565 11.8158 111.797 11.666 110.742 11.666H108.711V15.6113ZM108.711 17.5059V22.0371H111.182C112.275 22.0371 113.044 21.8255 113.486 21.4023C113.929 20.9792 114.15 20.4062 114.15 19.6836C114.15 19.2409 114.049 18.8568 113.848 18.5312C113.652 18.2057 113.33 17.9551 112.881 17.7793C112.432 17.597 111.826 17.5059 111.064 17.5059H108.711ZM119.551 24V9.72266H121.895V22.0078H127.959V24H119.551ZM138.516 24H130.43V9.72266H138.516V11.6953H132.773V15.5723H138.154V17.5352H132.773V22.0176H138.516V24Z" fill="white"/>
<path d="M6.85043 24.1761C6.85043 24.1761 6.34543 23.6834 9.62798 24.9151C12.9105 26.1468 14.6781 23.1907 14.6781 23.1907C15.9583 21.5279 14.1756 19.8626 13.5898 19.3846C13.4812 19.3526 13.3423 19.3083 13.163 19.2492C11.648 18.7565 6.59793 19.2492 6.59793 19.2492C6.34543 20.4809 7.35544 22.9443 7.35544 22.9443C5.08291 21.4663 5.08291 19.4955 5.08291 19.4955L3.82039 19.7418C1.80035 18.5101 1.54785 17.032 1.54785 17.032L3.56788 16.7857L1.29535 16.5394V15.0613L4.32539 12.8442C2.81037 11.3661 9.12297 11.1198 9.12297 11.1198C3.06287 9.64169 11.9005 6.19285 11.9005 6.19285C11.3955 3.23671 13.4155 2.00498 13.4155 2.00498C14.1731 7.91727 17.7081 8.40996 17.7081 8.40996C15.6881 3.48305 17.2031 3.48305 17.2031 3.48305C18.2131 5.20747 21.2432 6.4392 21.2432 6.4392C27.5558 7.91727 27.5558 6.68554 27.5558 6.68554C23.7682 6.68554 23.0107 4.46843 23.0107 4.46843C25.2832 5.70016 27.5558 4.96112 27.5558 4.96112C26.7983 3.7294 20.7382 -1.6902 12.4055 0.526905C12.2313 0.573711 12.0596 0.620517 11.8904 0.672249C4.8304 2.77358 0.191903 9.17609 0 16.293C0.111102 22.3901 3.71181 27.652 8.94117 30.2608C9.99158 25.3585 6.85043 24.1761 6.85043 24.1761Z" fill="white"/>
<path d="M11.3955 27.8712C11.5824 29.6868 10.8097 30.5638 10.3905 30.9013C11.0546 31.1575 11.7389 31.3743 12.4434 31.5443C12.8095 28.8 11.3955 27.8712 11.3955 27.8712Z" fill="white"/>
<path d="M30 24.9767C29.6844 24.2795 28.4193 21.7816 26.0407 20.7272C26.0407 20.7272 27.5558 25.6541 25.0307 27.8713C25.0307 27.8713 27.8083 20.7272 21.7482 17.2784C21.7482 17.2784 23.7682 24.1761 18.7181 28.1176C18.7181 28.1176 19.7281 25.6541 17.9606 23.9297C17.9606 23.9297 17.2031 29.3493 12.9105 31.5664C12.9105 31.5664 14.7159 31.9433 17.0844 32C22.4577 31.7832 27.1669 29.0512 30 24.9767Z" fill="white"/>
<path d="M11.3955 12.5978C12.4055 11.3661 13.4155 9.88803 13.4155 9.88803C9.88048 10.1344 11.3955 12.5978 11.3955 12.5978Z" fill="white"/>
</svg>
